PathFileType	4	(X/Y/Z)	/Users/mathieubourgeois/Desktop/Analyse/Traitement/Sujet_07/Data/Transformed_Sujet_07_velo_60.trc
DataRate	CameraRate	NumFrames	NumMarkers	Units	OrigDataRate	OrigDataStartFrame	OrigNumFrames
120.000000	120.000000	6	36	mm	120.000000	1634	1868
Frame#	Time	RFHD			LFHD			RBHD			LBHD			C7			CLAV			RSHO			LSHO			STRN			T10			RBWT			LBWT			RFWT			LFWT			RKNI			LKNI			RKNE			LKNE			LANI			RANI			LANE			RANE			LTOE			RTOE			LHEE			RHEE			RHUM			LHUM			RRAD			LRAD			RWRA			RWRB			LWRA			LWRB			LCAR			RCAR			
		X1	Y1	Z1	X2	Y2	Z2	X3	Y3	Z3	X4	Y4	Z4	X5	Y5	Z5	X6	Y6	Z6	X7	Y7	Z7	X8	Y8	Z8	X9	Y9	Z9	X10	Y10	Z10	X11	Y11	Z11	X12	Y12	Z12	X13	Y13	Z13	X14	Y14	Z14	X15	Y15	Z15	X16	Y16	Z16	X17	Y17	Z17	X18	Y18	Z18	X19	Y19	Z19	X20	Y20	Z20	X21	Y21	Z21	X22	Y22	Z22	X23	Y23	Z23	X24	Y24	Z24	X25	Y25	Z25	X26	Y26	Z26	X27	Y27	Z27	X28	Y28	Z28	X29	Y29	Z29	X30	Y30	Z30	X31	Y31	Z31	X32	Y32	Z32	X33	Y33	Z33	X34	Y34	Z34	X35	Y35	Z35	X36	Y36	Z36	

1635	13.61666666666667	261.9445495605469	1363.724609375	131.4338989257812	261.7066955566406	1325.32763671875	2.474864482879589	217.0116729736328	1507.473388671875	106.581672668457	211.5453033447266	1481.497436523438	-37.52210998535163	57.01541519165038	1495.015502929688	42.73816680908195	35.57214736938476	1362.093139648438	45.38689422607414	78.08973693847653	1435.829223632812	197.8631439208984	87.42971801757814	1460.302612304688	-81.15358734130866	-124.2450180053711	1292.457885742188	16.74982070922842	-196.3556213378906	1519.238159179688	42.07418823242176	-435.2042236328125	1296.342041015625	120.7870025634764	-442.3835754394531	1295.388061523438	6.150234699249134	-277.2585144042969	1208.151733398438	158.9712829589843	-285.7432861328125	1211.99658203125	-51.73556137084972	-59.65405654907228	760.3893432617188	128.5298156738281	-95.13488006591797	795.1195068359375	-28.68757247924811	-89.44052886962893	817.3850708007812	230.3663787841796	-68.20583343505858	840.9420166015625	-133.2800292968751	-355.0295715332031	524.3292846679688	-40.62304306030281	-93.29597473144533	376.6009826660156	126.4698104858398	-378.295166015625	529.26611328125	-127.7376861572266	-125.5641098022461	365.2161560058594	211.2185363769531	-247.6922760009766	361.3705749511719	-107.4989624023438	75.86161804199216	276.553955078125	202.296142578125	-433.1470947265625	551.2734375	-86.18344116210946	-177.4771270751953	347.7991027832031	163.740005493164	80.15301513671872	1102.96435546875	242.2872314453124	97.16526031494142	1120.197021484375	-134.8696746826172	127.4872665405273	1129.200927734375	284.3033142089843	159.5140380859375	1137.779418945312	-153.110092163086	321.4606628417968	935.9588623046875	252.6082763671875	281.6573486328124	901.4520263671875	306.1587524414062	318.1911926269531	928.9967651367188	-102.0455703735352	277.5474853515625	887.5428466796875	-153.6839141845703	372.1560363769531	915.2335205078125	-192.4391479492188	370.6841430664062	926.0419921875	341.8354187011719	
1636	13.625	261.8638610839844	1363.601928710938	131.9104766845703	261.7493286132812	1325.052001953125	3.051499605178784	217.149658203125	1507.385864257812	106.7788009643554	212.3685302734375	1481.051391601562	-36.62746810913092	57.25620651245116	1495.079345703125	42.77828979492179	35.54526138305663	1362.130859375	45.83063125610344	78.14791107177732	1435.873779296875	197.8311157226562	87.61090087890626	1460.2763671875	-81.28138732910163	-124.234001159668	1292.4921875	17.52976417541495	-196.2129974365234	1519.329711914062	42.25994873046864	-434.6955871582031	1296.146118164062	121.3574142456053	-442.1386108398438	1295.583984375	6.725253582000599	-276.8959350585938	1207.719360351562	159.0148010253905	-285.5027770996094	1212.2236328125	-51.53667831420909	-66.89720153808595	753.2973022460938	127.5582656860351	-90.45985412597656	801.4649047851562	-28.60905265808112	-95.10417175292972	810.364501953125	229.2510986328124	-62.24356460571288	847.1542358398438	-133.1304016113282	-351.4739990234375	533.3469848632812	-40.23569488525398	-95.29953002929689	369.0639343261719	126.5215301513671	-374.7870178222656	538.4136352539062	-127.3426895141602	-127.6355285644532	357.8880920410156	211.5077667236328	-245.0025482177734	369.72509765625	-106.9038009643555	73.31445312499997	267.0792541503906	201.9582977294922	-429.5669555664062	560.6443481445312	-85.75822448730477	-179.3273010253907	340.6718139648438	163.7040710449218	80.444221496582	1103.091430664062	242.1336059570312	97.29958343505861	1120.221557617188	-135.1419219970704	127.7991867065429	1129.353271484375	284.1397094726562	159.6923522949219	1137.816772460938	-153.2055969238282	321.5846557617187	935.922119140625	252.7076568603515	281.7382507324218	901.4500732421875	306.2548217773438	318.2438354492188	928.99609375	-101.945785522461	277.6215209960938	887.5374145507812	-153.6313629150391	372.22802734375	915.2169189453125	-192.3486175537109	370.7946166992187	925.9970703125	341.940185546875	
1637	13.63333333333333	261.7335510253906	1363.495849609375	132.4928131103515	261.82080078125	1324.794677734375	3.662294626235913	217.2973480224609	1507.327026367188	107.0655441284179	213.1723937988281	1479.552368164062	-35.18422317504889	57.48611068725585	1495.154052734375	42.76715469360343	35.5196304321289	1362.162231445312	46.27042770385734	78.22748565673825	1435.925415039062	197.764175415039	87.82904052734376	1460.234252929688	-81.44965362548835	-124.2311019897461	1292.527954101562	18.32478332519522	-196.077880859375	1519.4375	42.37818145751942	-434.2017822265625	1295.986450195312	121.9685211181639	-441.8724670410156	1295.772827148438	7.249801158904896	-276.4962463378906	1207.341796875	159.0995483398436	-285.2994689941406	1212.45166015625	-51.37771606445323	-73.28078460693361	746.3187255859375	126.4729080200195	-85.83565521240234	807.8670654296875	-28.25567054748541	-100.8759231567383	803.5358276367188	228.1802520751953	-58.206485748291	854.911376953125	-133.1010437011719	-347.7065124511719	542.1264038085938	-39.85575103759773	-97.53965759277345	361.8208923339844	126.6441345214843	-370.9519348144531	547.2896118164062	-126.9429016113282	-129.7168731689453	350.2197875976562	211.1022796630859	-241.6653442382812	378.2928771972656	-106.5200500488282	70.26048278808591	257.7137756347656	201.5547790527343	-425.7073364257812	569.686279296875	-85.38018798828134	-181.5758056640625	333.8377990722656	163.7589874267578	80.69117736816403	1103.189819335938	241.914566040039	97.41551208496095	1120.255981445312	-135.4221496582032	128.0286102294922	1129.4873046875	283.9546203613281	159.8592529296875	1137.854370117188	-153.2884368896485	321.6953124999999	935.8640747070312	252.7377777099609	281.8022766113281	901.44189453125	306.308837890625	318.2920227050781	928.983642578125	-101.8845901489258	277.6828308105469	887.52783203125	-153.5792388916016	372.2776794433594	915.2166748046875	-192.2943420410156	370.8547363281249	925.9569702148438	341.9894409179688	
1638	13.64166666666667	261.5720520019531	1363.413452148438	133.0824127197265	261.9189147949219	1324.575561523438	4.311914920806836	217.4437255859375	1507.267211914062	107.3751678466796	213.6118011474609	1479.324951171875	-34.9855918884278	57.70988845825195	1495.250610351562	42.73553848266593	35.49531173706054	1362.18701171875	46.70589447021477	78.32846832275388	1435.987182617188	197.7105102539062	88.11993408203126	1460.183837890625	-81.61930084228523	-124.2150344848633	1292.553100585938	19.12263298034659	-195.9480895996094	1519.526245117188	42.47424697875965	-433.6650695800781	1295.844970703125	122.5421447753905	-441.6006774902344	1296.016479492188	7.838713169097767	-276.0113220214844	1206.953735351562	159.1971740722655	-285.1069641113281	1212.713012695312	-51.20771789550792	-80.01641845703126	739.48779296875	125.3511505126953	-77.46262359619141	815.6868286132812	-27.38380241394049	-106.7139511108399	796.9156494140625	227.1305084228515	-53.17860031127928	861.9330444335938	-133.0264129638672	-343.6175537109375	550.6417846679688	-39.46380996704109	-100.2054214477539	354.808837890625	126.8197631835937	-366.8647766113281	555.8661499023438	-126.584083557129	-132.4608764648438	343.181884765625	211.1819763183593	-237.8752136230469	386.7107543945312	-106.0900650024415	66.75531768798825	248.5554962158203	201.0859375	-421.6560668945312	578.3132934570312	-84.99254608154305	-184.2214965820313	327.27490234375	163.7969360351562	80.88960266113278	1103.26416015625	241.6321411132812	97.51915740966798	1120.298950195312	-135.6785125732422	128.181884765625	1129.542236328125	283.7311401367187	159.983642578125	1137.863037109375	-153.3529968261719	321.7608642578124	935.9676513671875	252.5730895996093	281.8359069824218	901.433837890625	306.3041687011719	318.3388061523438	928.9804077148438	-101.8577423095703	277.7478332519531	887.5225830078125	-153.5784454345703	372.3340759277344	915.1915893554688	-192.2644500732422	370.8906555175781	925.9271240234375	342.0166931152344	
1639	13.65	261.4393005371094	1363.35791015625	133.5968933105468	262.0367431640625	1324.397705078125	4.971621036529492	217.5676727294922	1507.237670898438	107.6856460571288	213.6761627197266	1480.298217773438	-35.67692947387702	57.9256362915039	1495.36865234375	42.69530105590812	35.4723777770996	1362.204956054688	47.13663864135734	78.438850402832	1436.015258789062	197.6034240722655	88.37810516357423	1460.181518554688	-81.8036193847657	-124.1958160400391	1292.58447265625	19.91131019592276	-195.8162384033203	1519.619140625	42.5539207458495	-433.1379089355469	1295.75927734375	123.1133880615233	-441.3480224609375	1296.2744140625	8.36151313781725	-275.6380615234375	1206.59814453125	159.2477111816405	-284.9684753417969	1212.980712890625	-51.08446884155284	-86.83513641357423	732.917236328125	124.2760925292968	-68.33424377441406	823.8053588867188	-26.34552001953131	-112.5979461669922	790.5541381835938	226.0622100830078	-48.27614593505858	868.9722900390625	-132.8979644775391	-339.2807312011719	558.8649291992188	-39.07985305786141	-103.2059555053711	348.104248046875	127.0089111328125	-362.5691833496094	564.1090087890625	-126.2284622192384	-135.6154479980469	336.4493713378906	211.3307800292968	-233.9421997070312	394.5966186523438	-105.3940429687501	62.76728439331053	239.5730133056641	200.6200103759765	-417.3591003417969	586.5594482421875	-84.59563446044932	-187.3079681396485	321.1047668457031	163.9240722656249	81.02659606933591	1103.286376953125	241.2469635009765	97.59783172607423	1120.348022460938	-135.9348449707032	128.2669982910156	1129.526733398438	283.4761962890624	160.0870208740235	1137.895141601562	-153.5332336425782	321.8635253906249	935.9899291992188	252.5113067626953	281.8536376953124	901.4122924804688	306.2686462402344	318.3555297851562	928.9911499023438	-101.842414855957	277.7582702636719	887.5382080078125	-153.5780792236328	372.3492736816406	915.1915283203125	-192.2513732910156	370.9119873046874	925.9100341796875	342.0235900878906	
1640	13.65833333333333	261.2204895019531	1363.311767578125	134.2474212646484	262.1624145507812	1324.26171875	5.595234394073437	217.6421051025391	1507.22119140625	107.9771728515624	214.0943298339844	1480.291625976562	-35.33517456054694	58.14129257202148	1495.487182617188	42.6572952270507	35.45088958740234	1362.215942382812	47.56227111816398	78.59361267089841	1436.044067382812	197.4924926757812	88.6083450317383	1460.200927734375	-81.94506835937507	-124.1663513183594	1292.607299804688	20.68681144714346	-195.6793060302734	1519.693725585938	42.63290405273426	-432.652099609375	1295.70361328125	123.6378021240233	-441.0890502929688	1296.544189453125	8.906862258911	-275.1858520507812	1206.27099609375	159.2991485595702	-284.8302001953125	1213.286010742188	-50.99371719360362	-93.94396209716798	726.5164184570312	123.2319717407226	-61.44398498535156	831.1036987304688	-25.4928874969483	-118.5709228515625	784.4589233398438	225.108657836914	-43.52239990234374	876.0839233398438	-132.7435302734376	-334.7575378417969	566.7142333984375	-38.71381759643563	-106.7862014770508	341.6572265625	127.1941833496093	-358.0009155273438	572.0088500976562	-125.8221893310548	-139.183837890625	330.0119018554688	211.5236358642578	-229.9949340820312	402.1204223632812	-104.7068939208985	58.33191299438474	230.7565002441406	200.1125335693359	-412.940185546875	594.3339233398438	-84.1900634765626	-190.7906494140625	315.2659912109375	164.0772399902343	81.09985351562497	1103.270263671875	240.881118774414	97.63722229003908	1120.43017578125	-136.1364440917969	128.2159118652343	1129.427368164062	283.2869262695312	160.1630859375	1137.955200195312	-153.7142486572266	322.1082458496093	936.2095336914062	252.1820678710937	281.8558654785156	901.3770751953125	306.210693359375	318.340576171875	929.0144653320312	-101.8525466918945	277.7605285644531	887.550537109375	-153.5801544189453	372.3302001953125	915.1926879882812	-192.2446441650391	370.9031677246093	925.8910522460938	342.0304260253906	
